# xmcd CD database file generated by LOLA_Freedb v0.9beta0
# 
# Track frame offsets:
#      150
#      13518
#      26902
#      41045
#      52748
#      66695
#      79652
#      90851
#      105432
#      119751
#      132679
#      147239
# 
# Disc length: 2112 seconds
# 
# Revision: 0 
# Processed by: cddbd v1.5.2PL0 Copyright (c) Steve Scherf et al.
# Submitted via: LOLA_Freedb v0.9beta0
# 
DISCID=a5083e0c
DTITLE=Ernie Oldfield - My Guitar And Me
DYEAR=2008
DGENRE=
TTITLE0=Ernie Oldfield - Say Hello
TTITLE1=Ernie Oldfield - My Guitar And Me
TTITLE2=Ernie Oldfield - Many Kind Of Kisses
TTITLE3=Ernie Oldfield - Dreams Of You
TTITLE4=Ernie Oldfield - Let Me Be Your Hero
TTITLE5=Ernie Oldfield - Without Your Love
TTITLE6=Ernie Oldfield - Stetson
TTITLE7=Ernie Oldfield - Ruby Red
TTITLE8=Ernie Oldfield - Pay Me The Way
TTITLE9=Ernie Oldfield - Pokerface And Babysmile
TTITLE10=Ernie Oldfield - Bread And Beans (Live)
TTITLE11=Ernie Oldfield - This Award Goes To
EXTD=
EXTT0=
EXTT1=
EXTT2=
EXTT3=
EXTT4=
EXTT5=
EXTT6=
EXTT7=
EXTT8=
EXTT9=
EXTT10=
EXTT11=
PLAYORDER=
